# ProBuilder 5.2.2
# https://unity3d.com/unity/features/worldbuilding/probuilder
# 14.11.2024 23:35:23

mtllib ./triangle_fixed.mtl
o triangle_fixed

g Triangle_Fixed
v -0.5 -0.5 0
v -0.5 0.5 0
v 0.25 -0.5 0.4330127
v 0.25 0.5 0.4330127
v 0.25 -0.5 -0.4330127
v 0.25 0.5 -0.4330127
v 0 -0.5 0
v 0 0.5 0

vt -0.4330127 -0.5
vt -0.4330127 0.5
vt 0.4330127 -0.5
vt 0.4330127 0.5
vt -0.5 0
vt 0 0
vt 0.25 0.4330127
vt 0.5 0
vt -0.25 0.4330127
vt 0.25 -0.4330127
vt -0.25 -0.4330127

vn -0.5 0 0.8660254
vn 1 0 -8.603189E-08
vn -0.5000001 0 -0.8660254
vn 0 -1 0
vn 0 1 0

usemtl ProBuilderDefault
f 1/5/4 7/6/4 3/7/4
f 3/7/4 7/6/4 5/10/4
f 5/10/4 7/6/4 1/5/4
f 4/9/5 8/6/5 2/8/5
f 6/11/5 8/6/5 4/9/5
f 2/8/5 8/6/5 6/11/5
f 4/4/1 2/2/1 1/1/1
f 1/1/1 3/3/1 4/4/1
f 6/4/2 4/2/2 3/1/2
f 3/1/2 5/3/2 6/4/2
f 2/4/3 6/2/3 5/1/3
f 5/1/3 1/3/3 2/4/3

